<svg width="118" height="76" viewBox="0 0 118 76" fill="none" xmlns="http://www.w3.org/2000/svg">
<g clip-path="url(#clip0_234_491)">
<path d="M106.914 75.7753L103.566 65.6722C103.566 65.6722 107.249 69.3546 107.249 72.3761L106.588 65.3889C106.588 65.3889 108.476 67.9383 108.287 71.8096C108.099 75.6809 106.914 75.7753 106.914 75.7753Z" fill="#E6E6E6"/>
<path d="M35.0213 66.5759L31.7539 56.7157C31.7539 56.7157 35.3478 60.3096 35.3478 63.2584L34.7028 56.4392C34.7028 56.4392 36.5458 58.9273 36.3615 62.7055C36.1772 66.4838 35.0213 66.5759 35.0213 66.5759Z" fill="#E6E6E6"/>
<path d="M86.018 71.126C86.0236 77.6122 73.1589 75.6171 57.4095 75.6307C41.6601 75.6443 28.99 77.6615 28.9844 71.1752C28.9788 64.6889 41.8388 63.2671 57.5882 63.2535C73.3376 63.2399 86.0124 64.6397 86.018 71.126Z" fill="white"/>
<path d="M117.218 75.627H0V75.9237H117.218V75.627Z" fill="#3F3D56"/>
<path d="M74.9803 62.3662H72.9213L71.9414 54.4243H74.9803V62.3662Z" fill="#F5C4CB"/>
<path d="M71.2207 61.7778H75.4204V64.2781H68.9492V64.0494C68.9492 63.4469 69.1885 62.8691 69.6145 62.4431C70.0405 62.0172 70.6183 61.7778 71.2207 61.7778Z" fill="#2F2E41"/>
<path d="M90.1131 74.0879H88.0541L87.0742 66.146H90.1131V74.0879Z" fill="#F5C4CB"/>
<path d="M86.3575 73.4998H90.5572V76H84.0859V75.7713C84.0859 75.1688 84.3253 74.5911 84.7513 74.1651C85.1773 73.7391 85.755 73.4998 86.3575 73.4998Z" fill="#2F2E41"/>
<path d="M99.6133 50.4941C99.7557 50.3214 99.8585 50.1197 99.9144 49.903C99.9704 49.6863 99.9782 49.4601 99.9372 49.2401C99.8962 49.0201 99.8075 48.8117 99.6773 48.6297C99.5471 48.4477 99.3786 48.2965 99.1837 48.1867L94.4014 28.7058L91.3438 30.0214L97.0318 48.8577C96.869 49.1975 96.8365 49.5851 96.9405 49.9473C97.0444 50.3094 97.2776 50.6208 97.5958 50.8225C97.914 51.0242 98.2951 51.1022 98.667 51.0417C99.0388 50.9811 99.3755 50.7863 99.6133 50.4941Z" fill="#F5C4CB"/>
<path d="M95.8843 11.1228C95.7136 10.9444 95.5059 10.8055 95.2758 10.7161C95.0457 10.6266 94.7987 10.5887 94.5524 10.605C94.306 10.6213 94.0662 10.6914 93.8499 10.8104C93.6336 10.9294 93.446 11.0944 93.3003 11.2938L85.8984 12.1435L87.0244 14.9985L93.756 13.7387C94.1071 13.9612 94.5276 14.0472 94.9379 13.9804C95.3482 13.9135 95.7197 13.6985 95.982 13.3761C96.2444 13.0536 96.3793 12.6461 96.3613 12.2308C96.3433 11.8155 96.1736 11.4213 95.8843 11.1228Z" fill="#F5C4CB"/>
<path d="M83.6836 48.474L86.9135 72.715L90.9335 71.8873C90.9335 71.8873 90.3423 54.2332 92.3524 52.1049C94.3624 49.9766 89.7671 46.2483 89.7671 46.2483L83.6836 48.474Z" fill="#493E7E"/>
<path d="M85.0194 41.7968L83.5357 44.0225C83.5357 44.0225 72.1106 39.2745 72.1106 46.8417C72.1106 54.4088 71.4568 59.5442 71.2203 59.8989C70.9839 60.2536 73.9561 61.174 75.3749 60.9375C75.3749 60.9375 77.1253 48.7381 77.0071 48.0287C77.0071 48.0287 88.2145 53.5236 90.3428 53.0506C92.471 52.5777 92.9739 50.9035 93.3286 49.9576C93.6833 49.0117 93.1802 41.5001 93.1802 41.5001L86.0863 39.3352L85.0194 41.7968Z" fill="#493E7E"/>
<path d="M85.2203 28.434L84.7973 27.9265C84.7973 27.9265 80.0606 17.2688 81.9215 14.3929C83.7823 11.5171 91.9025 11.0941 92.1562 11.2633C92.41 11.4325 91.5501 13.6289 92.1422 14.6439C92.1422 14.6439 85.8519 16.0076 85.429 16.1768C85.006 16.346 88.6882 22.5976 88.6882 22.5976L88.2653 26.4039L85.2203 28.434Z" fill="#5E50A1"/>
<path d="M93.5079 23.1897C93.5079 23.1897 89.1095 23.6973 88.9404 23.6973C88.7712 23.6973 88.6866 22.5977 88.6866 22.5977L84.7957 27.9265C84.7957 27.9265 82.8788 43.3861 83.3863 43.1323C83.8938 42.8786 93.2542 44.3359 93.3388 43.6592C93.4233 42.9825 93.2542 39.5992 93.5079 39.43C93.7617 39.2608 97.9063 28.7723 97.9063 28.7723C97.9063 28.7723 97.4834 26.5731 96.0455 25.8119C94.6075 25.0506 93.5079 23.1897 93.5079 23.1897Z" fill="#5E50A1"/>
<path d="M96.5554 27.3342L97.9088 28.7722C97.9088 28.7722 99.9196 45.2954 98.82 45.8029C97.7204 46.3104 95.5557 46.2481 95.5557 46.2481L93.4258 38.4148L96.5554 27.3342Z" fill="#5E50A1"/>
<path d="M89.2839 22.1432C91.434 22.1432 93.1771 20.4001 93.1771 18.2499C93.1771 16.0998 91.434 14.3567 89.2839 14.3567C87.1337 14.3567 85.3906 16.0998 85.3906 18.2499C85.3906 20.4001 87.1337 22.1432 89.2839 22.1432Z" fill="#F5C4CB"/>
<path d="M88.3688 18.8576C88.3163 18.0498 87.2971 18.0221 86.4876 18.0145C85.6781 18.0068 84.7103 18.0357 84.2522 17.3682C83.9495 16.9271 84.0074 16.3147 84.2574 15.8418C84.5075 15.3688 84.9189 15.0051 85.3235 14.6551C86.3683 13.7517 87.4451 12.8554 88.6994 12.2771C89.9538 11.6989 91.4237 11.4652 92.7246 11.9294C94.3226 12.4996 96.4829 15.435 96.6694 17.1214C96.856 18.8078 96.182 20.527 95.0459 21.7873C93.9098 23.0475 91.3095 22.539 89.6731 22.9873C90.6679 21.5793 90.0122 19.0208 88.4184 18.3633L88.3688 18.8576Z" fill="#2F2E41"/>
<path d="M53.6704 69.217C58.8321 69.217 63.0166 65.0326 63.0166 59.8708C63.0166 54.7091 58.8321 50.5247 53.6704 50.5247C48.5086 50.5247 44.3242 54.7091 44.3242 59.8708C44.3242 65.0326 48.5086 69.217 53.6704 69.217Z" fill="#FBB017"/>
<path d="M47.4308 49.8606C46.1355 49.8607 44.8679 49.4853 43.7815 48.7799C42.6951 48.0745 41.8364 47.0694 41.3094 45.8861L26.4788 12.4876C25.9875 11.3813 25.7277 10.1862 25.7153 8.97576C25.7029 7.76533 25.9382 6.56514 26.4067 5.44898C26.8752 4.33282 27.567 3.32426 28.4396 2.4853C29.3122 1.64634 30.3472 0.994698 31.4809 0.570437C32.6146 0.146175 33.8231 -0.0417456 35.0321 0.0182264C36.2411 0.0781983 37.4251 0.384795 38.5113 0.919171C39.5974 1.45355 40.5628 2.20441 41.3481 3.12561C42.1334 4.04682 42.722 5.11889 43.0778 6.27594L53.8169 41.2057C54.1244 42.2055 54.1931 43.2635 54.0175 44.2947C53.8419 45.3259 53.4269 46.3015 52.8058 47.1432C52.1848 47.9848 51.375 48.6691 50.4415 49.1411C49.508 49.613 48.4768 49.8595 47.4308 49.8606Z" fill="#FBB017"/>
</g>
<defs>
<clipPath id="clip0_234_491">
<rect width="117.218" height="76" fill="white"/>
</clipPath>
</defs>
</svg>
