<svg width="82" height="82" viewBox="0 0 82 82" fill="none" xmlns="http://www.w3.org/2000/svg">
<rect width="82" height="82" fill="#E5E5E5"/>
<g clip-path="url(#clip0_0_1)">
<rect width="1440" height="3568" transform="translate(-1216 -2336)" fill="white"/>
<rect x="-1216" y="-373" width="1440" height="728" fill="#FAFBFC"/>
<g filter="url(#filter0_d_0_1)">
<rect x="-298" y="-185" width="339" height="437" fill="white"/>
</g>
<g filter="url(#filter1_d_0_1)">
<circle cx="41" cy="33" r="25" fill="#5E50A1"/>
</g>
<path d="M47.6662 32.0635L36.9859 21.3834C36.7389 21.1362 36.4091 21 36.0575 21C35.7059 21 35.3761 21.1362 35.1291 21.3834L34.3426 22.1697C33.8308 22.6821 33.8308 23.5149 34.3426 24.0265L43.3111 32.995L34.3326 41.9735C34.0856 42.2207 33.9492 42.5503 33.9492 42.9017C33.9492 43.2535 34.0856 43.583 34.3326 43.8305L35.1192 44.6166C35.3664 44.8638 35.6959 45 36.0475 45C36.3992 45 36.7289 44.8638 36.9759 44.6166L47.6662 33.9267C47.9138 33.6787 48.0498 33.3476 48.049 32.9956C48.0498 32.6422 47.9138 32.3113 47.6662 32.0635Z" fill="white"/>
</g>
<defs>
<filter id="filter0_d_0_1" x="-314" y="-193" width="371" height="469" filterUnits="userSpaceOnUse" color-interpolation-filters="sRGB">
<feFlood flood-opacity="0" result="BackgroundImageFix"/>
<feColorMatrix in="SourceAlpha" type="matrix" values="0 0 0 0 0 0 0 0 0 0 0 0 0 0 0 0 0 0 127 0" result="hardAlpha"/>
<feOffset dy="8"/>
<feGaussianBlur stdDeviation="8"/>
<feColorMatrix type="matrix" values="0 0 0 0 0.770833 0 0 0 0 0.770833 0 0 0 0 0.770833 0 0 0 0.25 0"/>
<feBlend mode="normal" in2="BackgroundImageFix" result="effect1_dropShadow_0_1"/>
<feBlend mode="normal" in="SourceGraphic" in2="effect1_dropShadow_0_1" result="shape"/>
</filter>
<filter id="filter1_d_0_1" x="0" y="0" width="82" height="82" filterUnits="userSpaceOnUse" color-interpolation-filters="sRGB">
<feFlood flood-opacity="0" result="BackgroundImageFix"/>
<feColorMatrix in="SourceAlpha" type="matrix" values="0 0 0 0 0 0 0 0 0 0 0 0 0 0 0 0 0 0 127 0" result="hardAlpha"/>
<feOffset dy="8"/>
<feGaussianBlur stdDeviation="8"/>
<feColorMatrix type="matrix" values="0 0 0 0 0.8 0 0 0 0 0.8 0 0 0 0 0.8 0 0 0 0.75 0"/>
<feBlend mode="normal" in2="BackgroundImageFix" result="effect1_dropShadow_0_1"/>
<feBlend mode="normal" in="SourceGraphic" in2="effect1_dropShadow_0_1" result="shape"/>
</filter>
<clipPath id="clip0_0_1">
<rect width="1440" height="3568" fill="white" transform="translate(-1216 -2336)"/>
</clipPath>
</defs>
</svg>
